<svg xmlns="http://www.w3.org/2000/svg" viewBox="0 0 720 230" width="100%" role="img" style="display:block;max-width:100%;height:auto;font-family:Inter,system-ui,-apple-system,Segoe UI,Roboto,sans-serif"><line x1="40" y1="196.0" x2="706" y2="196.0" stroke="var(--bd)" stroke-width="1" opacity="0.85"/><text x="33" y="199.0" font-size="9" fill="var(--mut2)" text-anchor="end">0</text><line x1="40" y1="160.0" x2="706" y2="160.0" stroke="var(--bd)" stroke-width="1" opacity="0.33"/><text x="33" y="163.0" font-size="9" fill="var(--mut2)" text-anchor="end">11</text><line x1="40" y1="124.0" x2="706" y2="124.0" stroke="var(--bd)" stroke-width="1" opacity="0.33"/><text x="33" y="127.0" font-size="9" fill="var(--mut2)" text-anchor="end">22</text><line x1="40" y1="88.0" x2="706" y2="88.0" stroke="var(--bd)" stroke-width="1" opacity="0.33"/><text x="33" y="91.0" font-size="9" fill="var(--mut2)" text-anchor="end">33</text><line x1="40" y1="52.0" x2="706" y2="52.0" stroke="var(--bd)" stroke-width="1" opacity="0.33"/><text x="33" y="55.0" font-size="9" fill="var(--mut2)" text-anchor="end">44</text><line x1="40" y1="16.0" x2="706" y2="16.0" stroke="var(--bd)" stroke-width="1" opacity="0.33"/><text x="33" y="19.0" font-size="9" fill="var(--mut2)" text-anchor="end">55</text><line x1="40.0" y1="196" x2="40.0" y2="200" stroke="var(--bd)" stroke-width="1"/><text x="40.0" y="214.0" font-size="10" fill="var(--mut)" text-anchor="start">Jun 17</text><line x1="173.2" y1="196" x2="173.2" y2="200" stroke="var(--bd)" stroke-width="1"/><text x="173.2" y="214.0" font-size="10" fill="var(--mut)" text-anchor="middle">Jun 24</text><line x1="306.4" y1="196" x2="306.4" y2="200" stroke="var(--bd)" stroke-width="1"/><text x="306.4" y="214.0" font-size="10" fill="var(--mut)" text-anchor="middle">Jul 01</text><line x1="439.6" y1="196" x2="439.6" y2="200" stroke="var(--bd)" stroke-width="1"/><text x="439.6" y="214.0" font-size="10" fill="var(--mut)" text-anchor="middle">Jul 08</text><line x1="572.8" y1="196" x2="572.8" y2="200" stroke="var(--bd)" stroke-width="1"/><text x="572.8" y="214.0" font-size="10" fill="var(--mut)" text-anchor="middle">Jul 15</text><line x1="706.0" y1="196" x2="706.0" y2="200" stroke="var(--bd)" stroke-width="1"/><text x="706.0" y="214.0" font-size="10" fill="var(--mut)" text-anchor="end">Jul 22</text><path d="M 40.0 173.1 C 40.1 172.5 40.0 170.9 40.3 169.8 C 44.3 168.7 58.0 167.6 63.7 166.5 C 69.4 165.5 72.1 164.4 74.6 163.3 C 77.2 162.2 74.6 161.1 78.8 160.0 C 89.1 158.9 121.4 157.8 136.9 156.7 C 152.3 155.6 163.9 154.5 171.5 153.5 C 179.0 152.4 180.0 151.3 181.9 150.2 C 182.8 149.1 182.6 148.0 182.8 146.9 C 183.0 145.8 182.9 144.7 183.1 143.6 C 183.2 142.5 183.3 141.5 183.7 140.4 C 184.1 139.3 185.2 138.2 185.5 137.1 C 185.5 136.0 185.5 134.9 185.5 133.8 C 185.6 132.7 185.5 131.6 185.7 130.5 C 186.3 129.5 187.9 128.4 188.6 127.3 C 189.3 126.2 189.5 125.1 189.9 124.0 C 190.2 122.9 189.9 121.8 190.5 120.7 C 191.0 119.6 192.2 118.5 192.9 117.5 C 193.6 116.4 194.0 115.3 194.6 114.2 C 195.3 113.1 196.0 112.0 196.8 110.9 C 197.6 109.8 198.7 108.7 199.4 107.6 C 200.2 106.5 200.8 105.5 201.5 104.4 C 202.1 103.3 201.8 102.2 203.2 101.1 C 204.6 100.0 208.1 98.9 210.1 97.8 C 212.1 96.7 210.1 95.6 215.3 94.5 C 224.5 93.5 257.4 92.4 265.8 91.3 C 266.2 90.2 265.8 89.1 266.2 88.0 C 268.3 86.9 275.4 85.8 278.5 84.7 C 281.5 83.6 279.8 82.5 284.4 81.5 C 288.9 80.4 301.7 79.3 305.6 78.2 C 307.9 77.1 307.1 76.0 307.9 74.9 C 308.6 73.8 308.5 72.7 310.2 71.6 C 312.0 70.5 311.4 69.5 318.6 68.4 C 325.8 67.3 335.2 66.2 353.3 65.1 C 371.5 64.0 412.5 62.9 427.5 61.8 C 442.5 60.7 440.6 59.6 443.3 58.5 C 443.6 57.5 443.3 56.4 443.6 55.3 C 444.2 54.2 443.6 53.1 446.7 52.0 C 450.8 50.9 462.4 49.8 468.5 48.7 C 474.6 47.6 471.3 46.5 483.1 45.5 C 494.9 44.4 526.8 43.3 539.3 42.2 C 551.9 41.1 549.4 40.0 558.6 38.9 C 567.7 37.8 588.3 36.7 594.3 35.6 C 594.3 34.5 594.3 33.5 594.3 32.4 C 596.7 31.3 605.2 30.2 608.6 29.1 C 611.9 28.0 608.6 26.9 614.4 25.8 C 627.8 24.7 673.6 23.1 688.9 22.5 C 704.2 22.5 703.2 22.5 706.0 22.5" fill="none" stroke="#ff7a2e" stroke-width="2.6" stroke-linecap="round" stroke-linejoin="round"/><circle cx="706.0" cy="22.5" r="3.6" fill="#ff7a2e"/><path d="M 40.0 192.7 C 45.8 192.2 40.0 190.5 75.0 189.5 C 117.5 188.4 257.9 187.3 294.6 186.2 C 294.8 185.1 294.6 184.0 294.8 182.9 C 298.0 181.8 310.1 180.7 313.6 179.6 C 316.0 178.5 313.6 177.5 316.0 176.4 C 320.9 175.3 337.7 174.2 343.4 173.1 C 349.0 172.0 348.2 170.9 349.8 169.8 C 351.5 168.7 349.8 167.6 353.2 166.5 C 356.6 165.5 357.6 164.4 370.0 163.3 C 382.4 162.2 414.8 161.1 427.5 160.0 C 440.2 158.9 427.5 157.8 446.1 156.7 C 467.9 155.6 533.9 154.5 558.6 153.5 C 583.3 152.4 588.3 151.3 594.2 150.2 C 594.3 149.1 594.2 148.0 594.3 146.9 C 608.8 145.8 664.8 144.7 681.2 143.6 C 692.3 142.5 688.2 140.9 692.3 140.4 C 696.5 140.4 703.7 140.4 706.0 140.4" fill="none" stroke="#37c2f0" stroke-width="2.6" stroke-linecap="round" stroke-linejoin="round"/><circle cx="706.0" cy="140.4" r="3.6" fill="#37c2f0"/><line x1="58.7" y1="16" x2="58.7" y2="196" stroke="#e0a52e" stroke-width="1" stroke-dasharray="2 3" opacity="0.5"/><text x="54.7" y="188.0" transform="rotate(-90 54.7 188.0)" text-anchor="start" font-size="9.5" font-weight="600" fill="#e0a52e">&#9670; Steve — ISSA LA</text><line x1="152.1" y1="16" x2="152.1" y2="196" stroke="#e0a52e" stroke-width="1" stroke-dasharray="2 3" opacity="0.5"/><text x="148.1" y="188.0" transform="rotate(-90 148.1 188.0)" text-anchor="start" font-size="9.5" font-weight="600" fill="#e0a52e">&#9670; Praxen launch</text><line x1="301.6" y1="16" x2="301.6" y2="196" stroke="#e0a52e" stroke-width="1" stroke-dasharray="2 3" opacity="0.5"/><text x="297.6" y="188.0" transform="rotate(-90 297.6 188.0)" text-anchor="start" font-size="9.5" font-weight="600" fill="#e0a52e">&#9670; Observra launch</text><rect x="52" y="23" width="12" height="12" rx="3" fill="#ff7a2e"/><text x="70" y="33" font-size="12" font-weight="600" fill="var(--tx)">Praxen &#183; 53&#9733;</text><rect x="52" y="43" width="12" height="12" rx="3" fill="#37c2f0"/><text x="70" y="53" font-size="12" font-weight="600" fill="var(--tx)">Observra &#183; 17&#9733;</text></svg>