<svg xmlns="http://www.w3.org/2000/svg" viewBox="0 0 800 533.333" width="100%" style="max-width:760px;height:auto;display:block;margin:0 auto;border-radius:10px;background:#fff;font-family:Inter,system-ui,-apple-system,Segoe UI,Roboto,sans-serif"><text x="64" y="30" font-size="17" font-weight="700" fill="#0a1020">GitHub stars over time</text><line x1="64" y1="481.3" x2="776" y2="481.3" stroke="#e7ebf2" stroke-width="1"/><text x="54" y="485.3" font-size="12" fill="#6f819a" text-anchor="end">0</text><line x1="64" y1="395.9" x2="776" y2="395.9" stroke="#e7ebf2" stroke-width="1"/><text x="54" y="399.9" font-size="12" fill="#6f819a" text-anchor="end">10</text><line x1="64" y1="310.4" x2="776" y2="310.4" stroke="#e7ebf2" stroke-width="1"/><text x="54" y="314.4" font-size="12" fill="#6f819a" text-anchor="end">20</text><line x1="64" y1="224.9" x2="776" y2="224.9" stroke="#e7ebf2" stroke-width="1"/><text x="54" y="228.9" font-size="12" fill="#6f819a" text-anchor="end">30</text><line x1="64" y1="139.5" x2="776" y2="139.5" stroke="#e7ebf2" stroke-width="1"/><text x="54" y="143.5" font-size="12" fill="#6f819a" text-anchor="end">40</text><line x1="64" y1="54.0" x2="776" y2="54.0" stroke="#e7ebf2" stroke-width="1"/><text x="54" y="58.0" font-size="12" fill="#6f819a" text-anchor="end">50</text><line x1="64.0" y1="481.33299999999997" x2="64.0" y2="486.33299999999997" stroke="#c3ccda" stroke-width="1"/><text x="64.0" y="503.3" font-size="11.5" fill="#6f819a" text-anchor="middle">May 21</text><line x1="206.4" y1="481.33299999999997" x2="206.4" y2="486.33299999999997" stroke="#c3ccda" stroke-width="1"/><text x="206.4" y="503.3" font-size="11.5" fill="#6f819a" text-anchor="middle">Jun 01</text><line x1="348.8" y1="481.33299999999997" x2="348.8" y2="486.33299999999997" stroke="#c3ccda" stroke-width="1"/><text x="348.8" y="503.3" font-size="11.5" fill="#6f819a" text-anchor="middle">Jun 11</text><line x1="491.2" y1="481.33299999999997" x2="491.2" y2="486.33299999999997" stroke="#c3ccda" stroke-width="1"/><text x="491.2" y="503.3" font-size="11.5" fill="#6f819a" text-anchor="middle">Jun 22</text><line x1="633.6" y1="481.33299999999997" x2="633.6" y2="486.33299999999997" stroke="#c3ccda" stroke-width="1"/><text x="633.6" y="503.3" font-size="11.5" fill="#6f819a" text-anchor="middle">Jul 03</text><line x1="776.0" y1="481.33299999999997" x2="776.0" y2="486.33299999999997" stroke="#c3ccda" stroke-width="1"/><text x="776.0" y="503.3" font-size="11.5" fill="#6f819a" text-anchor="middle">Jul 13</text><path d="M 64.0 481.3 C 64.0 479.9 64.0 475.6 64.0 472.8 C 66.0 469.9 64.0 467.1 75.9 464.2 C 94.2 461.4 151.5 458.5 173.7 455.7 C 195.9 452.8 200.3 450.0 209.0 447.1 C 217.7 444.3 209.0 441.4 225.8 438.6 C 255.7 435.8 357.2 432.9 388.5 430.1 C 413.4 427.2 408.6 424.4 413.4 421.5 C 417.4 418.7 413.9 415.8 417.4 413.0 C 420.8 410.1 430.1 407.3 434.2 404.4 C 438.3 401.6 440.3 398.7 442.1 395.9 C 443.9 393.0 442.1 390.2 445.1 387.3 C 452.6 384.5 475.8 381.6 486.9 378.8 C 498.1 375.9 506.5 373.1 511.9 370.2 C 517.3 367.4 518.1 364.5 519.4 361.7 C 520.0 358.8 519.9 356.0 520.0 353.1 C 520.2 350.3 520.1 347.4 520.3 344.6 C 520.4 341.7 520.4 338.9 520.7 336.0 C 521.0 333.2 521.8 330.3 522.0 327.5 C 522.0 324.6 522.0 321.8 522.0 318.9 C 522.1 316.1 522.0 313.2 522.2 310.4 C 522.5 307.6 523.7 304.7 524.2 301.9 C 524.7 299.0 524.9 296.2 525.1 293.3 C 525.4 290.5 525.2 287.6 525.6 284.8 C 526.0 281.9 526.9 279.1 527.4 276.2 C 527.9 273.4 528.1 270.5 528.6 267.7 C 529.0 264.8 529.6 262.0 530.2 259.1 C 530.8 256.3 531.5 253.4 532.0 250.6 C 532.6 247.7 533.1 244.9 533.5 242.0 C 534.0 239.2 533.7 236.3 534.8 233.5 C 535.8 230.6 538.3 227.8 539.7 224.9 C 541.2 222.1 539.7 219.2 543.4 216.4 C 550.1 213.5 573.8 210.7 579.9 207.8 C 580.2 205.0 579.9 202.1 580.2 199.3 C 581.7 196.4 586.8 193.6 589.0 190.7 C 591.2 187.9 590.0 185.0 593.3 182.2 C 596.5 179.4 605.8 176.5 608.6 173.7 C 610.2 170.8 609.6 168.0 610.2 165.1 C 610.7 162.3 610.6 159.4 611.9 156.6 C 613.2 153.7 612.8 150.9 617.9 148.0 C 623.1 145.2 629.9 142.3 642.9 139.5 C 656.0 136.6 685.6 133.8 696.4 130.9 C 707.2 128.1 705.8 125.2 707.8 122.4 C 708.0 119.5 707.8 116.7 708.0 113.8 C 708.4 111.0 708.0 108.1 710.2 105.3 C 713.2 102.4 721.6 99.6 726.0 96.7 C 730.3 93.9 728.2 89.6 736.5 88.2 C 744.8 88.2 769.4 88.2 776.0 88.2" fill="none" stroke="#ff7a2e" stroke-width="3.5" stroke-linecap="round" stroke-linejoin="round"/><circle cx="776.0" cy="88.2" r="4.5" fill="#ff7a2e"/><path d="M 64.0 481.3 C 77.9 479.9 84.1 475.6 147.2 472.8 C 210.2 469.9 366.8 467.1 442.4 464.2 C 518.0 461.4 574.2 458.5 600.6 455.7 C 600.8 452.8 600.6 450.0 600.8 447.1 C 603.1 444.3 611.8 441.4 614.3 438.6 C 616.0 435.8 614.3 432.9 616.0 430.1 C 619.6 427.2 631.7 424.4 635.8 421.5 C 639.9 418.7 639.3 415.8 640.4 413.0 C 641.6 410.1 640.4 407.3 642.9 404.4 C 645.3 401.6 646.0 398.7 654.9 395.9 C 663.9 393.0 687.3 390.2 696.4 387.3 C 705.6 384.5 696.5 380.2 709.8 378.8 C 723.0 378.8 765.0 378.8 776.0 378.8" fill="none" stroke="#37c2f0" stroke-width="3.5" stroke-linecap="round" stroke-linejoin="round"/><circle cx="776.0" cy="378.8" r="4.5" fill="#37c2f0"/><line x1="430.6" y1="54" x2="430.6" y2="481.33299999999997" stroke="#e0a52e" stroke-width="1.3" stroke-dasharray="4 4" opacity="0.75"/><text x="426.6" y="473.3" transform="rotate(-90 426.6 473.3)" text-anchor="start" font-size="11" font-weight="700" fill="#b07d1e">&#9670; Steve — ISSA LA</text><line x1="498.0" y1="54" x2="498.0" y2="481.33299999999997" stroke="#e0a52e" stroke-width="1.3" stroke-dasharray="4 4" opacity="0.75"/><text x="494.0" y="473.3" transform="rotate(-90 494.0 473.3)" text-anchor="start" font-size="11" font-weight="700" fill="#b07d1e">&#9670; Praxen launch</text><line x1="605.7" y1="54" x2="605.7" y2="481.33299999999997" stroke="#e0a52e" stroke-width="1.3" stroke-dasharray="4 4" opacity="0.75"/><text x="601.7" y="473.3" transform="rotate(-90 601.7 473.3)" text-anchor="start" font-size="11" font-weight="700" fill="#b07d1e">&#9670; Observra launch</text><rect x="78" y="65" width="13" height="13" rx="3" fill="#ff7a2e"/><text x="98" y="76" font-size="13.5" font-weight="600" fill="#0a1020">Praxen &#183; 46&#9733;</text><rect x="78" y="87" width="13" height="13" rx="3" fill="#37c2f0"/><text x="98" y="98" font-size="13.5" font-weight="600" fill="#0a1020">Observra &#183; 12&#9733;</text></svg>