<svg xmlns="http://www.w3.org/2000/svg" viewBox="0 0 720 230" width="100%" role="img" style="display:block;max-width:100%;height:auto;font-family:Inter,system-ui,-apple-system,Segoe UI,Roboto,sans-serif"><line x1="40" y1="196.0" x2="706" y2="196.0" stroke="var(--bd)" stroke-width="1" opacity="0.85"/><text x="33" y="199.0" font-size="9" fill="var(--mut2)" text-anchor="end">0</text><line x1="40" y1="160.0" x2="706" y2="160.0" stroke="var(--bd)" stroke-width="1" opacity="0.33"/><text x="33" y="163.0" font-size="9" fill="var(--mut2)" text-anchor="end">13</text><line x1="40" y1="124.0" x2="706" y2="124.0" stroke="var(--bd)" stroke-width="1" opacity="0.33"/><text x="33" y="127.0" font-size="9" fill="var(--mut2)" text-anchor="end">26</text><line x1="40" y1="88.0" x2="706" y2="88.0" stroke="var(--bd)" stroke-width="1" opacity="0.33"/><text x="33" y="91.0" font-size="9" fill="var(--mut2)" text-anchor="end">39</text><line x1="40" y1="52.0" x2="706" y2="52.0" stroke="var(--bd)" stroke-width="1" opacity="0.33"/><text x="33" y="55.0" font-size="9" fill="var(--mut2)" text-anchor="end">52</text><line x1="40" y1="16.0" x2="706" y2="16.0" stroke="var(--bd)" stroke-width="1" opacity="0.33"/><text x="33" y="19.0" font-size="9" fill="var(--mut2)" text-anchor="end">65</text><line x1="40.0" y1="196" x2="40.0" y2="200" stroke="var(--bd)" stroke-width="1"/><text x="40.0" y="214.0" font-size="10" fill="var(--mut)" text-anchor="start">Jun 17</text><line x1="173.2" y1="196" x2="173.2" y2="200" stroke="var(--bd)" stroke-width="1"/><text x="173.2" y="214.0" font-size="10" fill="var(--mut)" text-anchor="middle">Jul 05</text><line x1="306.4" y1="196" x2="306.4" y2="200" stroke="var(--bd)" stroke-width="1"/><text x="306.4" y="214.0" font-size="10" fill="var(--mut)" text-anchor="middle">Jul 23</text><line x1="439.6" y1="196" x2="439.6" y2="200" stroke="var(--bd)" stroke-width="1"/><text x="439.6" y="214.0" font-size="10" fill="var(--mut)" text-anchor="middle">Aug 10</text><line x1="572.8" y1="196" x2="572.8" y2="200" stroke="var(--bd)" stroke-width="1"/><text x="572.8" y="214.0" font-size="10" fill="var(--mut)" text-anchor="middle">Aug 28</text><line x1="706.0" y1="196" x2="706.0" y2="200" stroke="var(--bd)" stroke-width="1"/><text x="706.0" y="214.0" font-size="10" fill="var(--mut)" text-anchor="end">Sep 16</text><path d="M 40.0 176.6 C 40.0 176.2 40.0 174.8 40.1 173.8 C 41.7 172.9 47.0 172.0 49.3 171.1 C 51.5 170.2 52.6 169.2 53.6 168.3 C 54.5 167.4 53.6 166.5 55.2 165.5 C 59.2 164.6 71.9 163.7 77.9 162.8 C 83.9 161.8 88.5 160.9 91.4 160.0 C 94.4 159.1 94.8 158.2 95.5 157.2 C 95.9 156.3 95.8 155.4 95.9 154.5 C 95.9 153.5 95.9 152.6 96.0 151.7 C 96.1 150.8 96.1 149.8 96.2 148.9 C 96.4 148.0 96.8 147.1 97.0 146.2 C 97.0 145.2 97.0 144.3 97.0 143.4 C 97.0 142.5 97.0 141.5 97.0 140.6 C 97.2 139.7 97.9 138.8 98.2 137.8 C 98.4 136.9 98.5 136.0 98.6 135.1 C 98.8 134.2 98.7 133.2 98.9 132.3 C 99.1 131.4 99.6 130.5 99.9 129.5 C 100.1 128.6 100.3 127.7 100.5 126.8 C 100.8 125.8 101.1 124.9 101.4 124.0 C 101.7 123.1 102.1 122.2 102.4 121.2 C 102.7 120.3 102.9 119.4 103.2 118.5 C 103.4 117.5 103.3 116.6 103.9 115.7 C 104.4 114.8 105.8 113.8 106.6 112.9 C 107.4 112.0 106.6 111.1 108.6 110.2 C 112.2 109.2 125.1 108.3 128.4 107.4 C 128.5 106.5 128.4 105.5 128.5 104.6 C 129.3 103.7 132.1 102.8 133.3 101.8 C 134.5 100.9 133.9 100.0 135.6 99.1 C 137.4 98.2 142.4 97.2 144.0 96.3 C 144.8 95.4 144.5 94.5 144.8 93.5 C 145.1 92.6 145.1 91.7 145.8 90.8 C 146.5 89.8 146.2 88.9 149.0 88.0 C 151.8 87.1 155.5 86.2 162.6 85.2 C 169.7 84.3 185.8 83.4 191.7 82.5 C 197.5 81.5 196.8 80.6 197.8 79.7 C 198.0 78.8 197.8 77.8 198.0 76.9 C 198.2 76.0 198.0 75.1 199.2 74.2 C 200.8 73.2 205.3 72.3 207.7 71.4 C 210.1 70.5 208.8 69.5 213.4 68.6 C 218.0 67.7 230.5 66.8 235.4 65.8 C 240.3 64.9 239.4 64.0 242.9 63.1 C 246.5 62.2 254.6 61.2 256.9 60.3 C 256.9 59.4 256.9 58.5 256.9 57.5 C 257.9 56.6 261.2 55.7 262.5 54.8 C 263.8 53.8 262.5 52.9 264.8 52.0 C 270.0 51.1 287.1 50.2 294.0 49.2 C 300.8 48.3 294.0 47.4 305.7 46.5 C 317.6 45.5 354.1 44.6 365.3 43.7 C 373.1 42.8 371.8 41.8 373.1 40.9 C 373.2 40.0 373.1 39.1 373.2 38.2 C 377.7 37.2 382.6 36.3 399.7 35.4 C 416.8 34.5 442.8 33.5 475.6 32.6 C 508.5 31.7 562.2 30.8 596.9 29.8 C 631.7 28.9 666.0 27.5 684.2 27.1 C 702.3 27.1 702.4 27.1 706.0 27.1" fill="none" stroke="#ff7a2e" stroke-width="2.6" stroke-linecap="round" stroke-linejoin="round"/><circle cx="706.0" cy="27.1" r="3.6" fill="#ff7a2e"/><path d="M 40.0 193.2 C 42.3 192.8 40.0 191.4 53.7 190.5 C 70.3 189.5 125.3 188.6 139.6 187.7 C 139.7 186.8 139.6 185.8 139.7 184.9 C 141.0 184.0 145.7 183.1 147.1 182.2 C 148.0 181.2 147.1 180.3 148.0 179.4 C 149.9 178.5 156.5 177.5 158.7 176.6 C 160.9 175.7 160.6 174.8 161.3 173.8 C 161.9 172.9 161.3 172.0 162.6 171.1 C 163.9 170.2 164.3 169.2 169.1 168.3 C 174.0 167.4 186.7 166.5 191.7 165.5 C 196.6 164.6 191.7 163.7 198.9 162.8 C 207.5 161.8 233.3 160.9 242.9 160.0 C 252.6 159.1 254.6 158.2 256.9 157.2 C 256.9 156.3 256.9 155.4 256.9 154.5 C 262.6 153.5 284.5 152.6 290.9 151.7 C 295.3 150.8 290.9 149.8 295.3 148.9 C 304.9 148.0 339.0 147.1 348.8 146.2 C 354.3 145.2 348.8 144.3 354.3 143.4 C 361.3 142.5 370.1 141.5 390.6 140.6 C 411.1 139.7 451.6 138.8 477.2 137.8 C 502.9 136.9 532.3 136.0 544.3 135.1 C 549.5 134.2 544.3 132.8 549.5 132.3 C 576.5 132.3 679.9 132.3 706.0 132.3" fill="none" stroke="#37c2f0" stroke-width="2.6" stroke-linecap="round" stroke-linejoin="round"/><circle cx="706.0" cy="132.3" r="3.6" fill="#37c2f0"/><path d="M 366.7 193.2 C 366.7 192.8 366.7 191.4 366.7 190.5 C 371.7 189.5 389.7 188.6 396.4 187.7 C 403.1 186.8 403.1 185.8 406.9 184.9 C 410.8 184.0 415.0 183.1 419.4 182.2 C 423.8 181.2 419.4 180.3 433.1 179.4 C 470.7 178.5 599.5 177.1 644.9 176.6 C 690.4 176.6 695.8 176.6 706.0 176.6" fill="none" stroke="#ffcc33" stroke-width="2.6" stroke-linecap="round" stroke-linejoin="round"/><circle cx="706.0" cy="176.6" r="3.6" fill="#ffcc33"/><line x1="83.9" y1="16" x2="83.9" y2="196" stroke="#e0a52e" stroke-width="1" stroke-dasharray="2 3" opacity="0.5"/><text x="79.9" y="188.0" transform="rotate(-90 79.9 188.0)" text-anchor="start" font-size="9.5" font-weight="600" fill="#e0a52e">&#9670; Praxen launch</text><line x1="142.4" y1="16" x2="142.4" y2="196" stroke="#e0a52e" stroke-width="1" stroke-dasharray="2 3" opacity="0.5"/><text x="138.4" y="188.0" transform="rotate(-90 138.4 188.0)" text-anchor="start" font-size="9.5" font-weight="600" fill="#e0a52e">&#9670; Observra launch</text><line x1="398.4" y1="16" x2="398.4" y2="196" stroke="#e0a52e" stroke-width="1" stroke-dasharray="2 3" opacity="0.5"/><text x="394.4" y="188.0" transform="rotate(-90 394.4 188.0)" text-anchor="start" font-size="9.5" font-weight="600" fill="#e0a52e">&#9670; Promptfall launch</text><rect x="52" y="23" width="12" height="12" rx="3" fill="#ff7a2e"/><text x="70" y="33" font-size="12" font-weight="600" fill="var(--tx)">Praxen &#183; 61&#9733;</text><rect x="52" y="43" width="12" height="12" rx="3" fill="#37c2f0"/><text x="70" y="53" font-size="12" font-weight="600" fill="var(--tx)">Observra &#183; 23&#9733;</text><rect x="52" y="63" width="12" height="12" rx="3" fill="#ffcc33"/><text x="70" y="73" font-size="12" font-weight="600" fill="var(--tx)">Promptfall &#183; 7&#9733;</text></svg>