<svg xmlns="http://www.w3.org/2000/svg" viewBox="0 0 720 230" width="100%" role="img" style="display:block;max-width:100%;height:auto;font-family:Inter,system-ui,-apple-system,Segoe UI,Roboto,sans-serif"><line x1="40" y1="196.0" x2="706" y2="196.0" stroke="var(--bd)" stroke-width="1" opacity="0.85"/><text x="33" y="199.0" font-size="9" fill="var(--mut2)" text-anchor="end">0</text><line x1="40" y1="160.0" x2="706" y2="160.0" stroke="var(--bd)" stroke-width="1" opacity="0.33"/><text x="33" y="163.0" font-size="9" fill="var(--mut2)" text-anchor="end">12</text><line x1="40" y1="124.0" x2="706" y2="124.0" stroke="var(--bd)" stroke-width="1" opacity="0.33"/><text x="33" y="127.0" font-size="9" fill="var(--mut2)" text-anchor="end">24</text><line x1="40" y1="88.0" x2="706" y2="88.0" stroke="var(--bd)" stroke-width="1" opacity="0.33"/><text x="33" y="91.0" font-size="9" fill="var(--mut2)" text-anchor="end">36</text><line x1="40" y1="52.0" x2="706" y2="52.0" stroke="var(--bd)" stroke-width="1" opacity="0.33"/><text x="33" y="55.0" font-size="9" fill="var(--mut2)" text-anchor="end">48</text><line x1="40" y1="16.0" x2="706" y2="16.0" stroke="var(--bd)" stroke-width="1" opacity="0.33"/><text x="33" y="19.0" font-size="9" fill="var(--mut2)" text-anchor="end">60</text><line x1="40.0" y1="196" x2="40.0" y2="200" stroke="var(--bd)" stroke-width="1"/><text x="40.0" y="214.0" font-size="10" fill="var(--mut)" text-anchor="start">Jun 17</text><line x1="173.2" y1="196" x2="173.2" y2="200" stroke="var(--bd)" stroke-width="1"/><text x="173.2" y="214.0" font-size="10" fill="var(--mut)" text-anchor="middle">Jun 28</text><line x1="306.4" y1="196" x2="306.4" y2="200" stroke="var(--bd)" stroke-width="1"/><text x="306.4" y="214.0" font-size="10" fill="var(--mut)" text-anchor="middle">Jul 09</text><line x1="439.6" y1="196" x2="439.6" y2="200" stroke="var(--bd)" stroke-width="1"/><text x="439.6" y="214.0" font-size="10" fill="var(--mut)" text-anchor="middle">Jul 21</text><line x1="572.8" y1="196" x2="572.8" y2="200" stroke="var(--bd)" stroke-width="1"/><text x="572.8" y="214.0" font-size="10" fill="var(--mut)" text-anchor="middle">Aug 01</text><line x1="706.0" y1="196" x2="706.0" y2="200" stroke="var(--bd)" stroke-width="1"/><text x="706.0" y="214.0" font-size="10" fill="var(--mut)" text-anchor="end">Aug 13</text><path d="M 40.0 175.0 C 40.0 174.5 40.0 173.0 40.2 172.0 C 42.7 171.0 51.2 170.0 54.8 169.0 C 58.4 168.0 60.1 167.0 61.7 166.0 C 63.2 165.0 61.7 164.0 64.2 163.0 C 70.7 162.0 90.9 161.0 100.6 160.0 C 110.2 159.0 117.5 158.0 122.2 157.0 C 126.9 156.0 127.6 155.0 128.7 154.0 C 129.3 153.0 129.1 152.0 129.3 151.0 C 129.4 150.0 129.3 149.0 129.4 148.0 C 129.5 147.0 129.6 146.0 129.9 145.0 C 130.1 144.0 130.8 143.0 131.0 142.0 C 131.0 141.0 131.0 140.0 131.0 139.0 C 131.0 138.0 131.0 137.0 131.1 136.0 C 131.4 135.0 132.5 134.0 132.9 133.0 C 133.3 132.0 133.5 131.0 133.7 130.0 C 133.9 129.0 133.7 128.0 134.1 127.0 C 134.4 126.0 135.2 125.0 135.6 124.0 C 136.1 123.0 136.3 122.0 136.7 121.0 C 137.1 120.0 137.6 119.0 138.1 118.0 C 138.6 117.0 139.2 116.0 139.7 115.0 C 140.2 114.0 140.6 113.0 140.9 112.0 C 141.3 111.0 141.1 110.0 142.0 109.0 C 142.9 108.0 145.1 107.0 146.4 106.0 C 147.6 105.0 146.4 104.0 149.6 103.0 C 155.4 102.0 175.9 101.0 181.2 100.0 C 181.4 99.0 181.2 98.0 181.4 97.0 C 182.7 96.0 187.2 95.0 189.1 94.0 C 191.0 93.0 190.0 92.0 192.8 91.0 C 195.6 90.0 203.6 89.0 206.1 88.0 C 207.5 87.0 207.0 86.0 207.5 85.0 C 207.9 84.0 207.8 83.0 209.0 82.0 C 210.1 81.0 209.7 80.0 214.2 79.0 C 218.7 78.0 224.5 77.0 235.9 76.0 C 247.2 75.0 272.9 74.0 282.3 73.0 C 291.7 72.0 290.4 71.0 292.1 70.0 C 292.3 69.0 292.1 68.0 292.3 67.0 C 292.7 66.0 292.3 65.0 294.3 64.0 C 296.9 63.0 304.1 62.0 307.9 61.0 C 311.7 60.0 309.7 59.0 317.0 58.0 C 324.4 57.0 344.3 56.0 352.2 55.0 C 360.0 54.0 358.5 53.0 364.2 52.0 C 369.9 51.0 382.8 50.0 386.6 49.0 C 386.6 48.0 386.6 47.0 386.6 46.0 C 388.1 45.0 393.4 44.0 395.5 43.0 C 397.6 42.0 395.5 41.0 399.1 40.0 C 407.5 39.0 434.8 38.0 445.7 37.0 C 456.6 36.0 445.7 35.0 464.5 34.0 C 483.5 33.0 541.8 32.0 559.7 31.0 C 572.1 30.0 570.0 29.0 572.1 28.0 C 572.4 27.0 572.1 26.0 572.4 25.0 C 579.4 24.0 592.4 22.5 614.6 22.0 C 636.9 22.0 690.8 22.0 706.0 22.0" fill="none" stroke="#ff7a2e" stroke-width="2.6" stroke-linecap="round" stroke-linejoin="round"/><circle cx="706.0" cy="22.0" r="3.6" fill="#ff7a2e"/><path d="M 40.0 193.0 C 43.7 192.5 40.0 191.0 61.9 190.0 C 88.4 189.0 176.3 188.0 199.2 187.0 C 199.3 186.0 199.2 185.0 199.3 184.0 C 201.3 183.0 208.9 182.0 211.1 181.0 C 212.5 180.0 211.1 179.0 212.5 178.0 C 215.6 177.0 226.2 176.0 229.7 175.0 C 233.2 174.0 232.7 173.0 233.7 172.0 C 234.7 171.0 233.7 170.0 235.8 169.0 C 237.9 168.0 238.6 167.0 246.3 166.0 C 254.0 165.0 274.4 164.0 282.3 163.0 C 290.2 162.0 282.3 161.0 293.9 160.0 C 307.5 159.0 348.8 158.0 364.2 157.0 C 379.7 156.0 382.8 155.0 386.5 154.0 C 386.6 153.0 386.5 152.0 386.6 151.0 C 395.6 150.0 430.7 149.0 440.9 148.0 C 447.8 147.0 440.9 146.0 447.8 145.0 C 463.3 144.0 517.6 143.0 533.3 142.0 C 542.1 141.0 533.3 140.0 542.1 139.0 C 553.3 138.0 572.8 136.5 600.1 136.0 C 627.4 136.0 688.4 136.0 706.0 136.0" fill="none" stroke="#37c2f0" stroke-width="2.6" stroke-linecap="round" stroke-linejoin="round"/><circle cx="706.0" cy="136.0" r="3.6" fill="#37c2f0"/><path d="M 561.9 193.0 C 561.9 192.5 561.9 191.0 561.9 190.0 C 569.8 189.0 598.6 188.0 609.3 187.0 C 620.0 186.0 620.1 185.0 626.2 184.0 C 632.3 183.0 639.1 182.0 646.1 181.0 C 653.1 180.0 658.1 178.5 668.1 178.0 C 678.0 178.0 699.7 178.0 706.0 178.0" fill="none" stroke="#ffcc33" stroke-width="2.6" stroke-linecap="round" stroke-linejoin="round"/><circle cx="706.0" cy="178.0" r="3.6" fill="#ffcc33"/><line x1="110.1" y1="16" x2="110.1" y2="196" stroke="#e0a52e" stroke-width="1" stroke-dasharray="2 3" opacity="0.5"/><text x="106.1" y="188.0" transform="rotate(-90 106.1 188.0)" text-anchor="start" font-size="9.5" font-weight="600" fill="#e0a52e">&#9670; Praxen launch</text><line x1="203.6" y1="16" x2="203.6" y2="196" stroke="#e0a52e" stroke-width="1" stroke-dasharray="2 3" opacity="0.5"/><text x="199.6" y="188.0" transform="rotate(-90 199.6 188.0)" text-anchor="start" font-size="9.5" font-weight="600" fill="#e0a52e">&#9670; Observra launch</text><line x1="612.5" y1="16" x2="612.5" y2="196" stroke="#e0a52e" stroke-width="1" stroke-dasharray="2 3" opacity="0.5"/><text x="608.5" y="188.0" transform="rotate(-90 608.5 188.0)" text-anchor="start" font-size="9.5" font-weight="600" fill="#e0a52e">&#9670; Promptfall launch</text><rect x="52" y="23" width="12" height="12" rx="3" fill="#ff7a2e"/><text x="70" y="33" font-size="12" font-weight="600" fill="var(--tx)">Praxen &#183; 58&#9733;</text><rect x="52" y="43" width="12" height="12" rx="3" fill="#37c2f0"/><text x="70" y="53" font-size="12" font-weight="600" fill="var(--tx)">Observra &#183; 20&#9733;</text><rect x="52" y="63" width="12" height="12" rx="3" fill="#ffcc33"/><text x="70" y="73" font-size="12" font-weight="600" fill="var(--tx)">Promptfall &#183; 6&#9733;</text></svg>