<svg xmlns="http://www.w3.org/2000/svg" viewBox="0 0 720 230" width="100%" role="img" style="display:block;max-width:100%;height:auto;font-family:Inter,system-ui,-apple-system,Segoe UI,Roboto,sans-serif"><line x1="40" y1="196.0" x2="706" y2="196.0" stroke="var(--bd)" stroke-width="1" opacity="0.85"/><text x="33" y="199.0" font-size="9" fill="var(--mut2)" text-anchor="end">0</text><line x1="40" y1="160.0" x2="706" y2="160.0" stroke="var(--bd)" stroke-width="1" opacity="0.33"/><text x="33" y="163.0" font-size="9" fill="var(--mut2)" text-anchor="end">11</text><line x1="40" y1="124.0" x2="706" y2="124.0" stroke="var(--bd)" stroke-width="1" opacity="0.33"/><text x="33" y="127.0" font-size="9" fill="var(--mut2)" text-anchor="end">22</text><line x1="40" y1="88.0" x2="706" y2="88.0" stroke="var(--bd)" stroke-width="1" opacity="0.33"/><text x="33" y="91.0" font-size="9" fill="var(--mut2)" text-anchor="end">33</text><line x1="40" y1="52.0" x2="706" y2="52.0" stroke="var(--bd)" stroke-width="1" opacity="0.33"/><text x="33" y="55.0" font-size="9" fill="var(--mut2)" text-anchor="end">44</text><line x1="40" y1="16.0" x2="706" y2="16.0" stroke="var(--bd)" stroke-width="1" opacity="0.33"/><text x="33" y="19.0" font-size="9" fill="var(--mut2)" text-anchor="end">55</text><line x1="40.0" y1="196" x2="40.0" y2="200" stroke="var(--bd)" stroke-width="1"/><text x="40.0" y="214.0" font-size="10" fill="var(--mut)" text-anchor="start">Jun 17</text><line x1="173.2" y1="196" x2="173.2" y2="200" stroke="var(--bd)" stroke-width="1"/><text x="173.2" y="214.0" font-size="10" fill="var(--mut)" text-anchor="middle">Jun 23</text><line x1="306.4" y1="196" x2="306.4" y2="200" stroke="var(--bd)" stroke-width="1"/><text x="306.4" y="214.0" font-size="10" fill="var(--mut)" text-anchor="middle">Jun 30</text><line x1="439.6" y1="196" x2="439.6" y2="200" stroke="var(--bd)" stroke-width="1"/><text x="439.6" y="214.0" font-size="10" fill="var(--mut)" text-anchor="middle">Jul 06</text><line x1="572.8" y1="196" x2="572.8" y2="200" stroke="var(--bd)" stroke-width="1"/><text x="572.8" y="214.0" font-size="10" fill="var(--mut)" text-anchor="middle">Jul 13</text><line x1="706.0" y1="196" x2="706.0" y2="200" stroke="var(--bd)" stroke-width="1"/><text x="706.0" y="214.0" font-size="10" fill="var(--mut)" text-anchor="end">Jul 19</text><path d="M 40.0 173.1 C 40.1 172.5 40.0 170.9 40.4 169.8 C 44.7 168.7 59.6 167.6 65.9 166.5 C 72.1 165.5 75.1 164.4 77.9 163.3 C 80.6 162.2 77.9 161.1 82.4 160.0 C 93.7 158.9 129.0 157.8 145.8 156.7 C 162.7 155.6 175.5 154.5 183.7 153.5 C 191.9 152.4 193.1 151.3 195.1 150.2 C 196.0 149.1 195.8 148.0 196.0 146.9 C 196.2 145.8 196.2 144.7 196.4 143.6 C 196.5 142.5 196.6 141.5 197.1 140.4 C 197.5 139.3 198.7 138.2 199.0 137.1 C 199.1 136.0 199.0 134.9 199.1 133.8 C 199.1 132.7 199.1 131.6 199.3 130.5 C 199.8 129.5 201.6 128.4 202.4 127.3 C 203.1 126.2 203.4 125.1 203.8 124.0 C 204.1 122.9 203.9 121.8 204.4 120.7 C 205.0 119.6 206.4 118.5 207.2 117.5 C 207.9 116.4 208.3 115.3 209.0 114.2 C 209.7 113.1 210.5 112.0 211.4 110.9 C 212.3 109.8 213.4 108.7 214.2 107.6 C 215.1 106.5 215.8 105.5 216.5 104.4 C 217.2 103.3 216.8 102.2 218.4 101.1 C 219.9 100.0 223.7 98.9 225.9 97.8 C 228.1 96.7 225.9 95.6 231.5 94.5 C 241.7 93.5 277.5 92.4 286.8 91.3 C 287.2 90.2 286.8 89.1 287.2 88.0 C 289.5 86.9 297.3 85.8 300.6 84.7 C 303.9 83.6 302.1 82.5 307.1 81.5 C 312.0 80.4 326.0 79.3 330.3 78.2 C 332.7 77.1 331.9 76.0 332.7 74.9 C 333.6 73.8 333.4 72.7 335.4 71.6 C 337.3 70.5 336.7 69.5 344.5 68.4 C 352.3 67.3 362.6 66.2 382.4 65.1 C 402.2 64.0 447.1 62.9 463.5 61.8 C 479.9 60.7 477.8 59.6 480.7 58.5 C 481.1 57.5 480.7 56.4 481.1 55.3 C 481.7 54.2 481.1 53.1 484.5 52.0 C 489.0 50.9 501.7 49.8 508.3 48.7 C 515.0 47.6 511.4 46.5 524.3 45.5 C 537.2 44.4 572.0 43.3 585.7 42.2 C 599.5 41.1 596.7 40.0 606.7 38.9 C 616.8 37.8 639.3 36.7 645.8 35.6 C 645.8 34.5 645.8 33.5 645.8 32.4 C 648.4 31.3 657.8 30.2 661.4 29.1 C 665.1 28.0 661.4 26.4 667.8 25.8 C 675.2 25.8 699.6 25.8 706.0 25.8" fill="none" stroke="#ff7a2e" stroke-width="2.6" stroke-linecap="round" stroke-linejoin="round"/><circle cx="706.0" cy="25.8" r="3.6" fill="#ff7a2e"/><path d="M 40.0 192.7 C 46.4 192.2 40.0 190.5 78.3 189.5 C 124.7 188.4 278.2 187.3 318.2 186.2 C 318.5 185.1 318.2 184.0 318.5 182.9 C 322.0 181.8 335.2 180.7 339.0 179.6 C 341.6 178.5 339.0 177.5 341.6 176.4 C 347.0 175.3 365.4 174.2 371.6 173.1 C 377.7 172.0 376.8 170.9 378.6 169.8 C 380.4 168.7 378.6 167.6 382.3 166.5 C 386.0 165.5 387.1 164.4 400.6 163.3 C 414.2 162.2 449.7 161.1 463.5 160.0 C 477.4 158.9 463.5 157.8 483.8 156.7 C 507.7 155.6 579.8 154.5 606.7 153.5 C 633.7 152.4 639.2 151.3 645.7 150.2 C 645.8 149.1 645.7 147.5 645.8 146.9 C 655.9 146.9 696.0 146.9 706.0 146.9" fill="none" stroke="#37c2f0" stroke-width="2.6" stroke-linecap="round" stroke-linejoin="round"/><circle cx="706.0" cy="146.9" r="3.6" fill="#37c2f0"/><line x1="60.4" y1="16" x2="60.4" y2="196" stroke="#e0a52e" stroke-width="1" stroke-dasharray="2 3" opacity="0.5"/><text x="56.4" y="188.0" transform="rotate(-90 56.4 188.0)" text-anchor="start" font-size="9.5" font-weight="600" fill="#e0a52e">&#9670; Steve — ISSA LA</text><line x1="162.5" y1="16" x2="162.5" y2="196" stroke="#e0a52e" stroke-width="1" stroke-dasharray="2 3" opacity="0.5"/><text x="158.5" y="188.0" transform="rotate(-90 158.5 188.0)" text-anchor="start" font-size="9.5" font-weight="600" fill="#e0a52e">&#9670; Praxen launch</text><line x1="325.9" y1="16" x2="325.9" y2="196" stroke="#e0a52e" stroke-width="1" stroke-dasharray="2 3" opacity="0.5"/><text x="321.9" y="188.0" transform="rotate(-90 321.9 188.0)" text-anchor="start" font-size="9.5" font-weight="600" fill="#e0a52e">&#9670; Observra launch</text><rect x="52" y="23" width="12" height="12" rx="3" fill="#ff7a2e"/><text x="70" y="33" font-size="12" font-weight="600" fill="var(--tx)">Praxen &#183; 52&#9733;</text><rect x="52" y="43" width="12" height="12" rx="3" fill="#37c2f0"/><text x="70" y="53" font-size="12" font-weight="600" fill="var(--tx)">Observra &#183; 15&#9733;</text></svg>