<svg xmlns="http://www.w3.org/2000/svg" viewBox="0 0 800 533.333" width="100%" style="max-width:760px;height:auto;display:block;margin:0 auto;border-radius:10px;background:#fff;font-family:Inter,system-ui,-apple-system,Segoe UI,Roboto,sans-serif"><text x="64" y="30" font-size="17" font-weight="700" fill="#0a1020">GitHub stars over time</text><line x1="64" y1="481.3" x2="776" y2="481.3" stroke="#e7ebf2" stroke-width="1"/><text x="54" y="485.3" font-size="12" fill="#6f819a" text-anchor="end">0</text><line x1="64" y1="395.9" x2="776" y2="395.9" stroke="#e7ebf2" stroke-width="1"/><text x="54" y="399.9" font-size="12" fill="#6f819a" text-anchor="end">9</text><line x1="64" y1="310.4" x2="776" y2="310.4" stroke="#e7ebf2" stroke-width="1"/><text x="54" y="314.4" font-size="12" fill="#6f819a" text-anchor="end">18</text><line x1="64" y1="224.9" x2="776" y2="224.9" stroke="#e7ebf2" stroke-width="1"/><text x="54" y="228.9" font-size="12" fill="#6f819a" text-anchor="end">27</text><line x1="64" y1="139.5" x2="776" y2="139.5" stroke="#e7ebf2" stroke-width="1"/><text x="54" y="143.5" font-size="12" fill="#6f819a" text-anchor="end">36</text><line x1="64" y1="54.0" x2="776" y2="54.0" stroke="#e7ebf2" stroke-width="1"/><text x="54" y="58.0" font-size="12" fill="#6f819a" text-anchor="end">45</text><line x1="64.0" y1="481.33299999999997" x2="64.0" y2="486.33299999999997" stroke="#c3ccda" stroke-width="1"/><text x="64.0" y="503.3" font-size="11.5" fill="#6f819a" text-anchor="middle">May 21</text><line x1="206.4" y1="481.33299999999997" x2="206.4" y2="486.33299999999997" stroke="#c3ccda" stroke-width="1"/><text x="206.4" y="503.3" font-size="11.5" fill="#6f819a" text-anchor="middle">May 31</text><line x1="348.8" y1="481.33299999999997" x2="348.8" y2="486.33299999999997" stroke="#c3ccda" stroke-width="1"/><text x="348.8" y="503.3" font-size="11.5" fill="#6f819a" text-anchor="middle">Jun 09</text><line x1="491.2" y1="481.33299999999997" x2="491.2" y2="486.33299999999997" stroke="#c3ccda" stroke-width="1"/><text x="491.2" y="503.3" font-size="11.5" fill="#6f819a" text-anchor="middle">Jun 19</text><line x1="633.6" y1="481.33299999999997" x2="633.6" y2="486.33299999999997" stroke="#c3ccda" stroke-width="1"/><text x="633.6" y="503.3" font-size="11.5" fill="#6f819a" text-anchor="middle">Jun 28</text><line x1="776.0" y1="481.33299999999997" x2="776.0" y2="486.33299999999997" stroke="#c3ccda" stroke-width="1"/><text x="776.0" y="503.3" font-size="11.5" fill="#6f819a" text-anchor="middle">Jul 08</text><path d="M 64.0 481.3 C 64.0 479.8 64.0 475.0 64.0 471.8 C 66.2 468.7 64.0 465.5 77.4 462.3 C 97.8 459.2 162.0 456.0 186.8 452.8 C 211.6 449.7 216.6 446.5 226.3 443.3 C 236.0 440.2 226.3 437.0 245.1 433.9 C 278.6 430.7 392.2 427.5 427.2 424.4 C 455.1 421.2 449.7 418.0 455.1 414.9 C 459.5 411.7 455.6 408.5 459.5 405.4 C 463.4 402.2 473.7 399.0 478.3 395.9 C 482.9 392.7 485.1 389.5 487.2 386.4 C 489.2 383.2 487.2 380.0 490.5 376.9 C 498.9 373.7 524.9 370.5 537.3 367.4 C 549.8 364.2 559.2 361.0 565.3 357.9 C 571.3 354.7 572.2 351.6 573.7 348.4 C 574.4 345.2 574.2 342.1 574.4 338.9 C 574.5 335.7 574.5 332.6 574.6 329.4 C 574.7 326.2 574.8 323.1 575.1 319.9 C 575.5 316.7 576.4 313.6 576.6 310.4 C 576.6 307.2 576.6 304.1 576.6 300.9 C 576.6 297.7 576.6 294.6 576.8 291.4 C 577.2 288.2 578.5 285.1 579.1 281.9 C 579.6 278.7 579.8 275.6 580.1 272.4 C 580.3 269.2 580.2 266.1 580.6 262.9 C 581.0 259.8 582.0 256.6 582.6 253.4 C 583.1 250.3 583.4 247.1 583.9 243.9 C 584.5 240.8 585.1 237.6 585.7 234.4 C 586.4 231.3 587.2 228.1 587.8 224.9 C 588.4 221.8 588.9 218.6 589.5 215.4 C 590.0 212.3 589.7 209.1 590.9 205.9 C 592.0 202.8 594.8 199.6 596.4 196.4 C 598.1 193.3 596.4 190.1 600.6 186.9 C 608.1 183.8 634.5 180.6 641.4 177.5 C 641.7 174.3 641.4 171.1 641.7 168.0 C 643.4 164.8 649.1 161.6 651.6 158.5 C 654.0 155.3 652.7 152.1 656.3 149.0 C 660.0 145.8 670.3 142.6 673.5 139.5 C 675.3 136.3 674.6 133.1 675.3 130.0 C 675.9 126.8 675.7 123.6 677.2 120.5 C 678.6 117.3 678.2 114.1 683.9 111.0 C 689.7 107.8 697.3 104.6 711.9 101.5 C 726.6 98.3 761.1 93.6 771.8 92.0 C 776.0 92.0 775.3 92.0 776.0 92.0" fill="none" stroke="#ff7a2e" stroke-width="3.5" stroke-linecap="round" stroke-linejoin="round"/><circle cx="776.0" cy="92.0" r="4.5" fill="#ff7a2e"/><path d="M 64.0 481.3 C 79.5 479.8 86.5 475.0 157.1 471.8 C 227.7 468.7 402.9 465.5 487.5 462.3 C 572.1 459.2 635.0 456.0 664.6 452.8 C 664.8 449.7 664.6 446.5 664.8 443.3 C 667.3 440.2 677.1 437.0 679.9 433.9 C 681.8 430.7 679.9 427.5 681.8 424.4 C 685.8 421.2 699.4 418.0 703.9 414.9 C 708.5 411.7 707.8 408.5 709.1 405.4 C 710.4 402.2 709.1 399.0 711.8 395.9 C 714.5 392.7 715.4 389.5 725.4 386.4 C 735.4 383.2 763.3 378.5 771.8 376.9 C 776.0 376.9 775.3 376.9 776.0 376.9" fill="none" stroke="#37c2f0" stroke-width="3.5" stroke-linecap="round" stroke-linejoin="round"/><circle cx="776.0" cy="376.9" r="4.5" fill="#37c2f0"/><line x1="474.3" y1="54" x2="474.3" y2="481.33299999999997" stroke="#e0a52e" stroke-width="1.3" stroke-dasharray="4 4" opacity="0.75"/><text x="470.3" y="473.3" transform="rotate(-90 470.3 473.3)" text-anchor="start" font-size="11" font-weight="700" fill="#b07d1e">&#9670; Steve — ISSA LA</text><line x1="549.7" y1="54" x2="549.7" y2="481.33299999999997" stroke="#e0a52e" stroke-width="1.3" stroke-dasharray="4 4" opacity="0.75"/><text x="545.7" y="473.3" transform="rotate(-90 545.7 473.3)" text-anchor="start" font-size="11" font-weight="700" fill="#b07d1e">&#9670; Praxen launch</text><line x1="670.2" y1="54" x2="670.2" y2="481.33299999999997" stroke="#e0a52e" stroke-width="1.3" stroke-dasharray="4 4" opacity="0.75"/><text x="666.2" y="473.3" transform="rotate(-90 666.2 473.3)" text-anchor="start" font-size="11" font-weight="700" fill="#b07d1e">&#9670; Observra launch</text><rect x="78" y="65" width="13" height="13" rx="3" fill="#ff7a2e"/><text x="98" y="76" font-size="13.5" font-weight="600" fill="#0a1020">Praxen &#183; 41&#9733;</text><rect x="78" y="87" width="13" height="13" rx="3" fill="#37c2f0"/><text x="98" y="98" font-size="13.5" font-weight="600" fill="#0a1020">Observra &#183; 11&#9733;</text></svg>