<svg xmlns="http://www.w3.org/2000/svg" viewBox="0 0 800 533.333" width="100%" style="max-width:760px;height:auto;display:block;margin:0 auto;border-radius:10px;background:#fff;font-family:Inter,system-ui,-apple-system,Segoe UI,Roboto,sans-serif"><text x="64" y="30" font-size="17" font-weight="700" fill="#0a1020">GitHub stars over time</text><line x1="64" y1="481.3" x2="776" y2="481.3" stroke="#e7ebf2" stroke-width="1"/><text x="54" y="485.3" font-size="12" fill="#6f819a" text-anchor="end">0</text><line x1="64" y1="395.9" x2="776" y2="395.9" stroke="#e7ebf2" stroke-width="1"/><text x="54" y="399.9" font-size="12" fill="#6f819a" text-anchor="end">10</text><line x1="64" y1="310.4" x2="776" y2="310.4" stroke="#e7ebf2" stroke-width="1"/><text x="54" y="314.4" font-size="12" fill="#6f819a" text-anchor="end">20</text><line x1="64" y1="224.9" x2="776" y2="224.9" stroke="#e7ebf2" stroke-width="1"/><text x="54" y="228.9" font-size="12" fill="#6f819a" text-anchor="end">30</text><line x1="64" y1="139.5" x2="776" y2="139.5" stroke="#e7ebf2" stroke-width="1"/><text x="54" y="143.5" font-size="12" fill="#6f819a" text-anchor="end">40</text><line x1="64" y1="54.0" x2="776" y2="54.0" stroke="#e7ebf2" stroke-width="1"/><text x="54" y="58.0" font-size="12" fill="#6f819a" text-anchor="end">50</text><line x1="64.0" y1="481.33299999999997" x2="64.0" y2="486.33299999999997" stroke="#c3ccda" stroke-width="1"/><text x="64.0" y="503.3" font-size="11.5" fill="#6f819a" text-anchor="middle">May 21</text><line x1="206.4" y1="481.33299999999997" x2="206.4" y2="486.33299999999997" stroke="#c3ccda" stroke-width="1"/><text x="206.4" y="503.3" font-size="11.5" fill="#6f819a" text-anchor="middle">Jun 01</text><line x1="348.8" y1="481.33299999999997" x2="348.8" y2="486.33299999999997" stroke="#c3ccda" stroke-width="1"/><text x="348.8" y="503.3" font-size="11.5" fill="#6f819a" text-anchor="middle">Jun 12</text><line x1="491.2" y1="481.33299999999997" x2="491.2" y2="486.33299999999997" stroke="#c3ccda" stroke-width="1"/><text x="491.2" y="503.3" font-size="11.5" fill="#6f819a" text-anchor="middle">Jun 23</text><line x1="633.6" y1="481.33299999999997" x2="633.6" y2="486.33299999999997" stroke="#c3ccda" stroke-width="1"/><text x="633.6" y="503.3" font-size="11.5" fill="#6f819a" text-anchor="middle">Jul 04</text><line x1="776.0" y1="481.33299999999997" x2="776.0" y2="486.33299999999997" stroke="#c3ccda" stroke-width="1"/><text x="776.0" y="503.3" font-size="11.5" fill="#6f819a" text-anchor="middle">Jul 15</text><path d="M 64.0 481.3 C 64.0 479.9 64.0 475.6 64.0 472.8 C 65.9 469.9 64.0 467.1 75.6 464.2 C 93.3 461.4 148.8 458.5 170.3 455.7 C 191.7 452.8 196.0 450.0 204.4 447.1 C 212.8 444.3 204.4 441.4 220.7 438.6 C 249.7 435.8 348.0 432.9 378.3 430.1 C 402.4 427.2 397.8 424.4 402.4 421.5 C 406.3 418.7 402.9 415.8 406.3 413.0 C 409.6 410.1 418.6 407.3 422.6 404.4 C 426.6 401.6 428.5 398.7 430.2 395.9 C 432.0 393.0 430.2 390.2 433.1 387.3 C 440.4 384.5 462.9 381.6 473.7 378.8 C 484.4 375.9 492.6 373.1 497.8 370.2 C 503.1 367.4 503.8 364.5 505.1 361.7 C 505.7 358.8 505.6 356.0 505.7 353.1 C 505.8 350.3 505.8 347.4 505.9 344.6 C 506.0 341.7 506.1 338.9 506.4 336.0 C 506.7 333.2 507.4 330.3 507.6 327.5 C 507.6 324.6 507.6 321.8 507.6 318.9 C 507.7 316.1 507.6 313.2 507.8 310.4 C 508.1 307.6 509.3 304.7 509.8 301.9 C 510.3 299.0 510.4 296.2 510.7 293.3 C 510.9 290.5 510.7 287.6 511.1 284.8 C 511.4 281.9 512.3 279.1 512.8 276.2 C 513.3 273.4 513.5 270.5 514.0 267.7 C 514.4 264.8 515.0 262.0 515.5 259.1 C 516.1 256.3 516.8 253.4 517.3 250.6 C 517.9 247.7 518.3 244.9 518.8 242.0 C 519.2 239.2 519.0 236.3 520.0 233.5 C 521.0 230.6 523.4 227.8 524.8 224.9 C 526.2 222.1 524.8 219.2 528.4 216.4 C 534.9 213.5 557.8 210.7 563.7 207.8 C 563.9 205.0 563.7 202.1 563.9 199.3 C 565.4 196.4 570.4 193.6 572.5 190.7 C 574.6 187.9 573.5 185.0 576.6 182.2 C 579.8 179.4 588.7 176.5 591.5 173.7 C 593.0 170.8 592.5 168.0 593.0 165.1 C 593.6 162.3 593.4 159.4 594.7 156.6 C 595.9 153.7 595.5 150.9 600.5 148.0 C 605.5 145.2 612.1 142.3 624.8 139.5 C 637.4 136.6 666.1 133.8 676.6 130.9 C 687.0 128.1 685.7 125.2 687.5 122.4 C 687.8 119.5 687.5 116.7 687.8 113.8 C 688.2 111.0 687.8 108.1 689.9 105.3 C 692.8 102.4 700.9 99.6 705.2 96.7 C 709.4 93.9 707.1 91.0 715.4 88.2 C 723.6 85.3 745.8 82.5 754.6 79.6 C 763.4 76.8 764.5 72.5 768.0 71.1 C 771.6 71.1 774.7 71.1 776.0 71.1" fill="none" stroke="#ff7a2e" stroke-width="3.5" stroke-linecap="round" stroke-linejoin="round"/><circle cx="776.0" cy="71.1" r="4.5" fill="#ff7a2e"/><path d="M 64.0 481.3 C 77.4 479.9 83.5 475.6 144.6 472.8 C 205.6 469.9 357.3 467.1 430.5 464.2 C 503.7 461.4 558.2 458.5 583.8 455.7 C 583.9 452.8 583.8 450.0 583.9 447.1 C 586.1 444.3 594.6 441.4 597.0 438.6 C 598.7 435.8 597.0 432.9 598.7 430.1 C 602.2 427.2 613.9 424.4 617.8 421.5 C 621.8 418.7 621.2 415.8 622.3 413.0 C 623.5 410.1 622.3 407.3 624.7 404.4 C 627.0 401.6 627.7 398.7 636.4 395.9 C 645.0 393.0 667.7 390.2 676.6 387.3 C 685.4 384.5 676.6 381.6 689.5 378.8 C 704.7 375.9 753.6 371.7 768.0 370.2 C 776.0 370.2 774.7 370.2 776.0 370.2" fill="none" stroke="#37c2f0" stroke-width="3.5" stroke-linecap="round" stroke-linejoin="round"/><circle cx="776.0" cy="370.2" r="4.5" fill="#37c2f0"/><line x1="419.1" y1="54" x2="419.1" y2="481.33299999999997" stroke="#e0a52e" stroke-width="1.3" stroke-dasharray="4 4" opacity="0.75"/><text x="415.1" y="473.3" transform="rotate(-90 415.1 473.3)" text-anchor="start" font-size="11" font-weight="700" fill="#b07d1e">&#9670; Steve — ISSA LA</text><line x1="484.3" y1="54" x2="484.3" y2="481.33299999999997" stroke="#e0a52e" stroke-width="1.3" stroke-dasharray="4 4" opacity="0.75"/><text x="480.3" y="473.3" transform="rotate(-90 480.3 473.3)" text-anchor="start" font-size="11" font-weight="700" fill="#b07d1e">&#9670; Praxen launch</text><line x1="588.7" y1="54" x2="588.7" y2="481.33299999999997" stroke="#e0a52e" stroke-width="1.3" stroke-dasharray="4 4" opacity="0.75"/><text x="584.7" y="473.3" transform="rotate(-90 584.7 473.3)" text-anchor="start" font-size="11" font-weight="700" fill="#b07d1e">&#9670; Observra launch</text><rect x="78" y="65" width="13" height="13" rx="3" fill="#ff7a2e"/><text x="98" y="76" font-size="13.5" font-weight="600" fill="#0a1020">Praxen &#183; 48&#9733;</text><rect x="78" y="87" width="13" height="13" rx="3" fill="#37c2f0"/><text x="98" y="98" font-size="13.5" font-weight="600" fill="#0a1020">Observra &#183; 13&#9733;</text></svg>